<?xml version="1.0" encoding="UTF-8"?>
<svg id="Camada_2" data-name="Camada 2" xmlns="http://www.w3.org/2000/svg" viewBox="0 0 1029.14 212.53">
  <defs>
    <style>
      .cls-1 {
        fill: #fff;
      }
    </style>
  </defs>
  <g id="Camada_1-2" data-name="Camada 1">
    <g>
      <rect x="491.57" width="537.57" height="212.53"/>
      <g>
        <path class="cls-1" d="M552.41,176.03c-1.6,0-3.1-.4-4.5-1.2-1.4-.8-2.5-1.9-3.3-3.3-.8-1.4-1.2-2.97-1.2-4.7s.4-3.23,1.2-4.5c.8-1.27,1.9-2.3,3.3-3.1s2.9-1.2,4.5-1.2c1.73,0,3.27.4,4.6,1.2,1.33.8,2.4,1.84,3.2,3.1.8,1.27,1.2,2.77,1.2,4.5s-.4,3.3-1.2,4.7c-.8,1.4-1.87,2.5-3.2,3.3-1.33.8-2.87,1.2-4.6,1.2Z"/>
        <path class="cls-1" d="M650.82,88.63h-72.61v-11.2h72.61v11.2ZM631.42,176.64c-6.8,0-12.64-1.4-17.5-4.2-4.87-2.8-8.6-6.76-11.2-11.9-2.6-5.13-3.9-11.1-3.9-17.9V51.62h12.4v90.61c0,7.2,1.93,12.8,5.8,16.8,3.87,4,9,6,15.4,6,3.47,0,6.8-.6,10-1.8s6-2.8,8.4-4.8v12c-2.53,1.87-5.5,3.37-8.9,4.5-3.4,1.13-6.9,1.7-10.5,1.7Z"/>
        <path class="cls-1" d="M720.63,176.44c-9.47,0-18-2.23-25.61-6.7-7.6-4.46-13.57-10.53-17.9-18.2-4.33-7.67-6.5-16.3-6.5-25.9s2-17.83,6-25.5c4-7.67,9.6-13.77,16.8-18.3,7.2-4.53,15.53-6.8,25-6.8s17.67,2.07,24.6,6.2c6.93,4.13,12.33,9.8,16.2,17,3.87,7.2,5.8,15.4,5.8,24.6v7.4h-85.41l3.2-8.6c-.67,8,.53,15.24,3.6,21.7,3.06,6.47,7.57,11.63,13.5,15.5,5.93,3.87,12.84,5.8,20.71,5.8,6.67,0,12.83-1.36,18.5-4.1s10.23-7.17,13.7-13.3l9.6,5.2c-4.4,8-10.23,14-17.5,18-7.27,4-15.37,6-24.3,6ZM683.22,120.23h69.41c-.13-6.8-1.7-12.7-4.7-17.7-3-5-7.04-8.87-12.1-11.6-5.07-2.73-10.87-4.1-17.4-4.1s-12.54,1.47-17.6,4.4c-5.07,2.93-9.1,6.93-12.1,12-3,5.07-4.83,10.74-5.5,17Z"/>
        <path class="cls-1" d="M833.64,176.44c-6.67,0-13-1.3-19-3.9-6-2.6-11.27-6.2-15.8-10.8-4.54-4.6-8.1-10-10.7-16.2s-3.9-12.77-3.9-19.7,1.3-13.63,3.9-19.7c2.6-6.07,6.17-11.43,10.7-16.1,4.53-4.67,9.8-8.3,15.8-10.9,6-2.6,12.33-3.9,19-3.9,8.67,0,16.67,1.94,24,5.8,7.33,3.87,13.27,9.94,17.8,18.2l-10.4,6c-3.47-6.27-7.94-10.87-13.4-13.8-5.47-2.93-11.47-4.4-18-4.4s-12.8,1.77-18.4,5.3c-5.6,3.53-10.1,8.24-13.5,14.1-3.4,5.87-5.1,12.33-5.1,19.4s1.7,13.54,5.1,19.4c3.4,5.87,7.9,10.57,13.5,14.1,5.6,3.54,11.73,5.3,18.4,5.3s12.53-1.47,18-4.4c5.47-2.93,9.93-7.47,13.4-13.6l10.4,5.8c-4.53,8.14-10.47,14.17-17.8,18.1-7.33,3.93-15.33,5.9-24,5.9Z"/>
        <path class="cls-1" d="M914.85,174.44h-12.4V32.82h12.4v75.61h-5.2c.93-6.27,3.33-11.9,7.2-16.9,3.87-5,8.8-8.97,14.8-11.9,6-2.93,12.6-4.4,19.8-4.4,9.2,0,17.1,2.03,23.71,6.1,6.6,4.07,11.63,9.7,15.1,16.9,3.46,7.2,5.2,15.67,5.2,25.4v50.81h-12.4v-49.81c0-6.8-1.23-13.03-3.7-18.7-2.47-5.67-6.17-10.23-11.1-13.7-4.94-3.47-11.07-5.2-18.4-5.2-6.67,0-12.67,1.67-18,5-5.34,3.33-9.5,7.9-12.5,13.7-3,5.8-4.5,12.43-4.5,19.9v48.81Z"/>
      </g>
      <rect class="cls-1" x="520.74" y="29.17" width="8.33" height="162.52"/>
      <g>
        <path d="M0,144.94v-.2c0-18.36,14.26-29.4,39.36-30.96l27.05-1.66v-7.13c0-10.45-6.84-16.8-19.14-16.8-11.52,0-18.56,5.37-20.12,12.99l-.2.88H4.4l.1-1.17c1.47-18.36,17.39-32.13,43.66-32.13s42.58,13.67,42.58,34.48v71.2h-24.32v-15.92h-.59c-5.96,10.84-17.48,17.68-31.16,17.68-20.71,0-34.67-12.79-34.67-31.25ZM41.9,157.63c13.97,0,24.51-9.28,24.51-21.58v-7.81l-23.64,1.47c-12.01.78-18.56,5.96-18.56,14.16v.1c0,8.5,7.03,13.67,17.68,13.67Z"/>
        <path d="M105.87,144.35l-.1-.88h23.93l.2.88c1.86,8.89,8.59,14.16,20.9,14.16s18.95-4.79,18.95-12.4v-.1c0-6.25-3.61-9.77-14.36-12.21l-17.19-3.81c-19.83-4.4-29.79-14.06-29.79-29.4v-.1c0-18.95,16.51-31.74,41.51-31.74s40.83,14.16,41.7,32.04l.1,1.07h-22.66l-.1-.78c-1.07-8.3-7.72-14.36-19.05-14.36-10.74,0-17.48,4.98-17.48,12.6v.1c0,5.96,4,9.86,14.75,12.31l17.29,3.81c21.39,4.79,29.69,13.19,29.69,28.23v.1c0,19.53-18.07,32.62-43.46,32.62-27.15,0-42.68-12.89-44.83-32.13Z"/>
        <path d="M205.5,144.94v-.2c0-18.36,14.26-29.4,39.36-30.96l27.05-1.66v-7.13c0-10.45-6.84-16.8-19.14-16.8-11.52,0-18.56,5.37-20.12,12.99l-.2.88h-22.56l.1-1.17c1.47-18.36,17.39-32.13,43.66-32.13s42.58,13.67,42.58,34.48v71.2h-24.32v-15.92h-.59c-5.96,10.84-17.48,17.68-31.16,17.68-20.71,0-34.67-12.79-34.67-31.25ZM247.4,157.63c13.97,0,24.51-9.28,24.51-21.58v-7.81l-23.64,1.47c-12.01.78-18.56,5.96-18.56,14.16v.1c0,8.5,7.03,13.67,17.68,13.67Z"/>
        <path d="M322.5,89.66h-14.16v-18.75h14.16v-9.86c0-20.22,9.57-29.59,32.04-29.59,4.79,0,9.96.39,12.99.98v16.99c-1.95-.29-4.69-.49-7.33-.49-9.47,0-13.87,4.4-13.87,12.79v9.18h20.8v18.75h-20.32v84.78h-24.32v-84.78Z"/>
        <path d="M370.65,122.96v-.1c0-32.62,19.05-54.11,48.64-54.11s47.96,20.8,47.96,52.06v7.81h-72.47c.39,18.17,10.35,28.91,26.18,28.91,12.11,0,20.02-6.45,22.37-13.38l.2-.68h22.76l-.29,1.07c-3.22,15.92-18.46,31.94-45.51,31.94-31.06,0-49.81-20.61-49.81-53.52ZM395.07,112.41h48.54c-1.76-16.41-11.13-24.61-24.03-24.61s-22.56,8.69-24.51,24.61Z"/>
      </g>
    </g>
  </g>
</svg>